<svg height="512" viewBox="0 0 64 64" width="512" xmlns="http://www.w3.org/2000/svg"><rect fill="#57b7eb" height="38" rx="4" width="58" x="3" y="3"/><path d="m13 21v-18h-6a4 4 0 0 0 -4 4v30a4 4 0 0 0 4 4h50a4 4 0 0 0 4-4v-1h-33a15 15 0 0 1 -15-15z" fill="#4891d3"/><path d="m21 41h22v4h-22z" fill="#93999a"/><path d="m14 45h36a4 4 0 0 1 4 4 0 0 0 0 1 0 0h-44a0 0 0 0 1 0 0 4 4 0 0 1 4-4z" fill="#d0d8da"/><rect fill="#d0d8da" height="8" rx="2" width="28" x="18" y="53"/><path d="m55 53a3 3 0 0 1 3 3v3a2 2 0 0 1 -2 2h-2a2 2 0 0 1 -2-2v-3a3 3 0 0 1 3-3z" fill="#d0d8da"/><path d="m53 7h-10a2 2 0 0 0 -2 2v10a2 2 0 0 0 2 2h4.5l4.5 6v-6h1a2 2 0 0 0 2-2v-10a2 2 0 0 0 -2-2z" fill="#a1d51c"/><circle cx="53" cy="29" fill="#f9e109" r="2"/><path d="m52 31h2a2 2 0 0 1 2 2v2a0 0 0 0 1 0 0h-6a0 0 0 0 1 0 0v-2a2 2 0 0 1 2-2z" fill="#f9e109"/><path d="m35 11h-26a2 2 0 0 0 -2 2v16a2 2 0 0 0 2 2h15.333l-1.333 4 7.667-4h4.333a2 2 0 0 0 2-2v-16a2 2 0 0 0 -2-2z" fill="#c4f236"/><path d="m9 31h7.842a14.927 14.927 0 0 1 -3.842-10v-10h-4a2 2 0 0 0 -2 2v16a2 2 0 0 0 2 2z" fill="#a1d51c"/><path d="m22 19h6v6h-6z" fill="#e59730"/><path d="m32 16h-6l-4 3h6z" fill="#f9e109"/><path d="m32 16-4 3v6l4-3z" fill="#fcbc04"/><path d="m11 15h4v4h-4z" fill="#fcbc04"/><path d="m13 33h4v3h-4z" fill="#656b76"/><circle cx="15" cy="31" fill="#d0d8da" r="4"/><path d="m15 35a3.99 3.99 0 0 0 3.613-2.31 15.045 15.045 0 0 1 -4.322-5.619 4 4 0 0 0 .709 7.929z" fill="#93999a"/><path d="m12 35h6a2 2 0 0 1 2 2v4a0 0 0 0 1 0 0h-10a0 0 0 0 1 0 0v-4a2 2 0 0 1 2-2z" fill="#93999a"/><path d="m13 36v-1h-1a2 2 0 0 0 -2 2v4h10v-2h-4a3 3 0 0 1 -3-3z" fill="#656b76"/><path d="m18.64 32.64a3.995 3.995 0 1 1 -5.28-5.28 3.931 3.931 0 0 0 -.36 1.64 4 4 0 0 0 4 4 3.931 3.931 0 0 0 1.64-.36z" fill="#656b76"/><path d="m19 32h-4a1 1 0 0 1 0-2h4a1 1 0 0 1 0 2z" fill="#4891d3"/><path d="m14 31a1 1 0 0 0 1 1h2.852a14.949 14.949 0 0 1 -1.83-2h-1.022a1 1 0 0 0 -1 1z" fill="#2d72bc"/><path d="m54.82 29.82a1.992 1.992 0 0 1 -2.64-2.64 2 2 0 1 0 2.64 2.64z" fill="#fcbc04"/><path d="m51.027 31.263a1.992 1.992 0 0 0 -1.027 1.737v2h6v-1h-2a2.989 2.989 0 0 1 -2.973-2.737z" fill="#fcbc04"/><path d="m43 7h10a2 2 0 0 1 2 2v9a0 0 0 0 1 0 0h-5a7 7 0 0 1 -7-7v-4a0 0 0 0 1 0 0z" fill="#c4f236"/><path d="m11 15h2v4h-2z" fill="#e59730"/><path d="m12 15h3a0 0 0 0 1 0 0v3a0 0 0 0 1 0 0h-1a2 2 0 0 1 -2-2v-1a0 0 0 0 1 0 0z" fill="#f9e109"/><path d="m13 17.723v-2.723h-1v1a1.994 1.994 0 0 0 1 1.723z" fill="#fcbc04"/><path d="m21 45v-4h22z" fill="#656b76"/><path d="m18 47a2 2 0 0 1 -2-2h-2a4 4 0 0 0 -4 4h44a3.955 3.955 0 0 0 -.555-2z" fill="#93999a"/><path d="m22 53h-2a2 2 0 0 0 -2 2v4a2 2 0 0 0 2 2h24a2 2 0 0 0 2-2v-1h-19a5 5 0 0 1 -5-5z" fill="#93999a"/><path d="m54 56v-2.816a2.99 2.99 0 0 0 -2 2.816v3a2 2 0 0 0 2 2h2a2 2 0 0 0 2-2h-1a3 3 0 0 1 -3-3z" fill="#93999a"/><g fill="#656b76"><path d="m18 56h28v2h-28z"/><path d="m25 53h2v8h-2z"/><path d="m21 53h2v8h-2z"/><path d="m29 53h2v8h-2z"/><path d="m37 53h2v8h-2z"/><path d="m33 53h2v8h-2z"/><path d="m41 53h2v4h-2z"/></g><path d="m48 18a4 4 0 1 1 4-4 4 4 0 0 1 -4 4zm0-6a2 2 0 1 0 2 2 2 2 0 0 0 -2-2z" fill="#fcbc04"/><path d="m51 18a1 1 0 0 1 -.707-.293l-2-2a1 1 0 0 1 1.414-1.414l2 2a1 1 0 0 1 -.707 1.707z" fill="#fcbc04"/><path d="m21 17h-2a1 1 0 0 1 0-2h2a1 1 0 0 1 0 2z" fill="#57b7eb"/><path d="m18 24h-5a1 1 0 0 1 0-2h5a1 1 0 0 1 0 2z" fill="#57b7eb"/></svg>