<svg id="Layer_35" enable-background="new 0 0 64 64" height="512" viewBox="0 0 64 64" width="512" xmlns="http://www.w3.org/2000/svg"><path d="m13 2c3.87 0 7 3.13 7 7v7h-11c-3.87 0-7-3.13-7-7 0-1.94.78-3.68 2.05-4.95s3.01-2.05 4.95-2.05z" fill="#ffeaa7"/><path d="m62 50c0 1.66-.67 3.16-1.76 4.24-1.08 1.09-2.58 1.76-4.24 1.76h-6c-3.31 0-6-2.69-6-6v-6h12c3.31 0 6 2.69 6 6z" fill="#ffeaa7"/><path d="m18.5 48.5 1.5 1.5-10.76 10.76c-.79.79-1.87 1.24-3 1.24-1.17 0-2.23-.48-3-1.24-.76-.77-1.24-1.83-1.24-3 0-1.13.45-2.21 1.24-3l10.76-10.76 1.5 1.5z" fill="#cf9e76"/><path d="m21.72 45.28-3.22 3.22-3-3 3.22-3.22c.84 1.15 1.85 2.16 3 3z" fill="#ccd1d9"/><path d="m38.16 39.77c-1.81 2.56-4.79 4.23-8.16 4.23-5.52 0-10-4.48-10-10 0-3.27 1.57-6.17 4-7.99v6.99c0 3.25 6.01 5.98 14.16 6.77z" fill="#69d6f4"/><path d="m38.16 39.77c1.16-1.63 1.84-3.62 1.84-5.77 0-.72-.08-1.43-.22-2.1-.97-4.51-4.98-7.9-9.78-7.9-2.18 0-4.21.7-5.85 1.89v.01c-.05.03-.1.07-.15.1v.01c-2.43 1.82-4 4.72-4 7.99 0 5.52 4.48 10 10 10 3.37 0 6.35-1.67 8.16-4.23zm-19.44 2.51c-1.71-2.32-2.72-5.19-2.72-8.28 0-5.58 3.27-10.4 8-12.65 1.82-.87 3.86-1.35 6-1.35 3.75 0 7.16 1.48 9.68 3.89 2.21 2.11 3.72 4.93 4.18 8.1.09.66.14 1.33.14 2.01 0 2.14-.48 4.18-1.35 6-2.25 4.73-7.07 8-12.65 8-3.09 0-5.96-1.01-8.28-2.72-1.15-.84-2.16-1.85-3-3z" fill="#e6e9ed"/><g fill="#ffeaa7"><path d="m62 25v8c0 3.87-8.51 7-19 7-.12 0-.23 0-.35 0 .87-1.82 1.35-3.86 1.35-6 0-.68-.05-1.35-.14-2.01 10.1-.16 18.14-3.23 18.14-6.99z"/><path d="m24.15 25.9c1.06 3.05 7.46 5.49 15.63 6 .14.67.22 1.38.22 2.1 0 2.15-.68 4.14-1.84 5.77-8.15-.79-14.16-3.52-14.16-6.77v-6.99-.01c.05-.03.1-.07.15-.1z"/><path d="m43 16c10.49 0 19-3.13 19-7v8c0 3.87-8.51 7-19 7-1.13 0-2.24-.04-3.32-.11-2.52-2.41-5.93-3.89-9.68-3.89-2.14 0-4.18.48-6 1.35v-12.35c0 3.87 8.51 7 19 7z"/></g><path d="m30 24c4.8 0 8.81 3.39 9.78 7.9-8.17-.51-14.57-2.95-15.63-6v-.01c1.64-1.19 3.67-1.89 5.85-1.89z" fill="#fcd770"/><path d="m62 17v8c0 3.76-8.04 6.83-18.14 6.99-.46-3.17-1.97-5.99-4.18-8.1 1.08.07 2.19.11 3.32.11 10.49 0 19-3.13 19-7z" fill="#fcd770"/><path d="m62 9c0 3.87-8.51 7-19 7s-19-3.13-19-7 8.51-7 19-7 19 3.13 19 7z" fill="#fcd770"/><ellipse cx="43" cy="9" fill="#5cd6b3" rx="13" ry="3"/><path d="m50.824 18.432.301 1.978c.683-.104 1.356-.222 2.016-.354l-.393-1.961c-.629.125-1.272.238-1.924.337z"/><path d="m46.929 18.862.143 1.995c.682-.049 1.358-.11 2.029-.183l-.217-1.988c-.647.07-1.299.129-1.955.176z"/><path d="m54.647 17.663.496 1.938c.68-.174 1.341-.365 1.981-.572l-.616-1.903c-.6.194-1.222.374-1.861.537z"/><path d="m50.824 34.432.301 1.978c.683-.104 1.356-.222 2.016-.354l-.393-1.961c-.629.125-1.272.238-1.924.337z"/><path d="m54.647 33.663.496 1.938c.68-.174 1.341-.365 1.981-.572l-.616-1.903c-.6.194-1.222.374-1.861.537z"/><path d="m46.929 34.862.143 1.995c.682-.049 1.358-.11 2.029-.183l-.217-1.988c-.647.07-1.299.129-1.955.176z"/><path d="m43 1c-9.695 0-20 2.804-20 8v11.744c-4.752 2.52-8 7.513-8 13.256 0 3.008.899 5.806 2.429 8.157l-1.929 1.929-1.5-1.5-11.464 11.464c-.991.991-1.536 2.307-1.536 3.707 0 2.891 2.352 5.243 5.243 5.243 1.4 0 2.717-.545 3.707-1.536l11.464-11.464-1.5-1.5 1.929-1.929c2.351 1.53 5.149 2.429 8.157 2.429 5.744 0 10.738-3.249 13.257-8.002 9.62-.049 19.743-2.848 19.743-7.998v-24c0-5.196-10.305-8-20-8zm0 2c10.608 0 18 3.162 18 6s-7.392 6-18 6-18-3.162-18-6 7.392-6 18-6zm-34.464 57.05c-.613.613-1.427.95-2.293.95-1.788 0-3.243-1.455-3.243-3.243 0-.866.337-1.68.95-2.293l10.05-10.05 4.586 4.586zm9.964-12.964-1.586-1.586 1.729-1.729c.489.567 1.019 1.097 1.586 1.586zm11.5-.086c-7.168 0-13-5.832-13-13s5.832-13 13-13 13 5.832 13 13-5.832 13-13 13zm14.133-8.021c.551-1.561.867-3.232.867-4.979 0-.353-.029-.699-.053-1.046 7.947-.275 13.358-2.09 16.053-4.379v4.425c0 2.735-6.875 5.762-16.867 5.979zm.557-8.016c-.458-2.22-1.421-4.252-2.744-5.997.353.007.701.034 1.054.034 7.108 0 14.537-1.509 18-4.36v4.36c0 2.625-6.66 5.642-16.31 5.963zm-1.69-7.963c-.986 0-1.97-.038-2.94-.094-2.665-2.418-6.187-3.906-10.06-3.906-1.755 0-3.433.319-5 .875v-7.235c3.463 2.851 10.892 4.36 18 4.36s14.537-1.509 18-4.36v4.36c0 2.838-7.392 6-18 6z"/><path d="m43 13c1.433 0 14-.112 14-4s-12.567-4-14-4-14 .112-14 4 12.567 4 14 4zm0-6c6.929 0 11.228 1.233 11.945 2-.717.767-5.016 2-11.945 2s-11.228-1.233-11.945-2c.717-.767 5.016-2 11.945-2z"/><path d="m9 17h12v-8c0-4.411-3.589-8-8-8h-4c-4.411 0-8 3.589-8 8s3.589 8 8 8zm0-14h4c3.309 0 6 2.691 6 6v6h-10c-3.309 0-6-2.691-6-6s2.691-6 6-6z"/><path d="m56 43h-13v7c0 3.86 3.14 7 7 7h6c3.86 0 7-3.14 7-7s-3.14-7-7-7zm0 12h-6c-2.757 0-5-2.243-5-5v-5h11c2.757 0 5 2.243 5 5s-2.243 5-5 5z"/><path d="m17 11h-2v-6h-2v6h-2v-4h-2v4h-2v-6h-2v8h12z"/><path d="m30 23c-6.065 0-11 4.935-11 11s4.935 11 11 11 11-4.935 11-11-4.935-11-11-11zm8.397 7.788c-6.986-.647-11.527-2.628-12.926-4.552 1.332-.781 2.877-1.236 4.529-1.236 3.83 0 7.1 2.409 8.397 5.788zm-17.397 3.212c0-2.136.752-4.099 2-5.644v4.644c0 3.559 5.105 6.439 13.162 7.542-1.612 1.519-3.777 2.458-6.162 2.458-4.962 0-9-4.038-9-9zm16.656 4.707c-8.218-.902-12.656-3.58-12.656-5.707v-4.389c2.617 2.176 7.629 3.731 13.916 4.224.05.382.084.769.084 1.165 0 1.727-.497 3.335-1.344 4.707z"/><path d="m47 47h2v2h-2z"/><path d="m51 47h2v2h-2z"/><path d="m47 51h12v2h-12z"/><path d="m55 47h2v2h-2z"/></svg>