<svg height="512" viewBox="0 0 512 512" width="512" xmlns="http://www.w3.org/2000/svg"><g id="Flat"><path d="m240 408h32v88h-32z" fill="#798b9b"/><path d="m40 40h432v392h-432z" fill="#ccdce5"/><path d="m24 24h464v32h-464z" fill="#0093ba"/><path d="m152 112a71.775 71.775 0 0 0 -50.91 21.09l50.91 50.91z" fill="#ef5249"/><path d="m152 184-50.91-50.91a72 72 0 1 0 101.91 101.73z" fill="#88bf40"/><path d="m184 168 51 50.82a72 72 0 0 0 -51-122.82z" fill="#ffc119"/><path d="m320 320h32v72h-32z" fill="#ef5249"/><path d="m352 288h32v104h-32z" fill="#ffc119"/><path d="m384 256h32v136h-32z" fill="#88bf40"/><path d="m296 384h144v16h-144z" fill="#0093ba"/><path d="m88 368h-16v-112a8 8 0 0 1 2.343-5.657l48-48 11.314 11.314-45.657 45.657z" fill="#0093ba"/><path d="m72 384h16v16h-16z" fill="#0093ba"/><g fill="#abbac2"><path d="m128 320h16v16h-16z"/><path d="m160 320h96v16h-96z"/><path d="m112 352h144v16h-144z"/><path d="m112 384h128v16h-128z"/><path d="m304 96h16v16h-16z"/><path d="m336 96h64v16h-64z"/><path d="m288 128h112v16h-112z"/><path d="m288 160h96v16h-96z"/></g><path d="m408 232h-16v-32a8 8 0 0 1 2.343-5.657l29.657-29.657v-44.686h16v48a8 8 0 0 1 -2.343 5.657l-29.657 29.657z" fill="#0093ba"/><path d="m424 88h16v16h-16z" fill="#0093ba"/></g></svg>