<?xml version="1.0" encoding="iso-8859-1"?>
<!-- Generator: Adobe Illustrator 19.0.0, SVG Export Plug-In . SVG Version: 6.00 Build 0)  -->
<svg version="1.1" id="Capa_1" xmlns="http://www.w3.org/2000/svg" xmlns:xlink="http://www.w3.org/1999/xlink" x="0px" y="0px"
	 viewBox="0 0 480 480" style="enable-background:new 0 0 480 480;" xml:space="preserve">
<path style="fill:#FFF1D0;" d="M472,40c0-17.672-14.328-32-32-32H40C22.328,8,8,22.328,8,40v304h464V40z M240,40
	c19.976,0,38.952,4.304,56.04,12.048L280,79.968C267.688,74.832,254.176,72,240,72c-49.176,0-90.384,34.136-101.216,80l-31-8
	C122.176,84.328,175.912,40,240,40z M96,192c0-8.84,7.16-16,16-16s16,7.16,16,16s-7.16,16-16,16S96,200.84,96,192z M240,312
	c-51.968,0-97.128-29.152-120.024-71.992l27.76-15.968C165.088,257.296,199.896,280,240,280V312z M288,296c-8.84,0-16-7.16-16-16
	s7.16-16,16-16s16,7.16,16,16S296.84,296,288,296z M312,192h-10.096c-1.512,5.856-3.816,11.376-6.816,16.464l7.136,7.136
	L279.6,238.224l-7.136-7.136c-5.08,3-10.608,5.304-16.464,6.816V248h-32v-10.096c-5.856-1.512-11.376-3.816-16.464-6.816
	l-7.136,7.136L177.776,215.6l7.136-7.136c-3-5.08-5.304-10.6-6.816-16.464H168v-32h10.096c1.512-5.856,3.816-11.376,6.816-16.464
	l-7.136-7.136l22.624-22.624l7.136,7.136c5.08-3,10.608-5.304,16.464-6.816V104h32v10.096c5.856,1.512,11.376,3.816,16.464,6.816
	l7.136-7.136l22.624,22.624l-7.136,7.136c3,5.08,5.304,10.608,6.816,16.464H312V192z M328,72c8.84,0,16,7.16,16,16s-7.16,16-16,16
	s-16-7.16-16-16S319.16,72,328,72z M336.336,272l-21.288-24C332.976,229.312,344,203.944,344,176c0-14.176-2.84-27.688-7.976-40.008
	l27.936-16.008C371.696,137.064,376,156.032,376,176C376,213.472,360.848,247.4,336.336,272z"/>
<rect x="224" y="392" style="fill:#086788;" width="32" height="48"/>
<g>
	<path style="fill:#06AED5;" d="M152,440c-17.672,0-32,14.328-32,32h240c0-17.672-14.328-32-32-32h-72h-32H152z"/>
	<path style="fill:#06AED5;" d="M40,392h184h32h184c17.672,0,32-14.328,32-32v-16H8v16C8,377.672,22.328,392,40,392z"/>
</g>
<g>
	<path style="fill:#FFB40E;" d="M240,72c14.176,0,27.688,2.832,40,7.968l16.04-27.928C278.952,44.304,259.976,40,240,40
		c-64.088,0-117.824,44.328-132.216,104l31,8C149.616,106.136,190.824,72,240,72z"/>
	<path style="fill:#FFB40E;" d="M336.024,135.992C341.16,148.312,344,161.824,344,176c0,27.944-11.024,53.312-28.952,72l21.288,24
		C360.848,247.4,376,213.472,376,176c0-19.968-4.304-38.936-12.032-56.016L336.024,135.992z"/>
</g>
<path style="fill:#DD3232;" d="M295.088,143.536l7.136-7.136L279.6,113.776l-7.136,7.136c-5.08-3-10.608-5.304-16.464-6.816V104h-32
	v10.096c-5.856,1.512-11.376,3.816-16.464,6.816l-7.136-7.136L177.776,136.4l7.136,7.136c-3,5.08-5.304,10.608-6.816,16.464H168v32
	h10.096c1.512,5.856,3.816,11.376,6.816,16.464l-7.136,7.136l22.624,22.624l7.136-7.136c5.08,3,10.608,5.304,16.464,6.816V248h32
	v-10.096c5.856-1.512,11.376-3.816,16.464-6.816l7.136,7.136l22.624-22.624l-7.136-7.136c3-5.08,5.304-10.6,6.816-16.464H312v-32
	h-10.096C300.392,154.144,298.088,148.624,295.088,143.536z M240,208c-17.672,0-32-14.328-32-32s14.328-32,32-32s32,14.328,32,32
	S257.672,208,240,208z"/>
<circle style="fill:#FFF1D0;" cx="240" cy="176" r="32"/>
<g>
	<circle style="fill:#06AED5;" cx="328" cy="88" r="16"/>
	<circle style="fill:#06AED5;" cx="288" cy="280" r="16"/>
	<circle style="fill:#06AED5;" cx="112" cy="192" r="16"/>
</g>
<path style="fill:#FFB40E;" d="M147.736,224.048l-27.76,15.968C142.872,282.848,188.032,312,240,312v-32
	C199.896,280,165.088,257.296,147.736,224.048z"/>
<g>
	<path style="fill:#242A40;" d="M40,400h176v32h-64c-22.056,0-40,17.944-40,40c0,4.424,3.576,8,8,8h240c4.424,0,8-3.576,8-8
		c0-22.056-17.944-40-40-40h-64v-32h176c22.056,0,40-17.944,40-40v-16V40c0-22.056-17.944-40-40-40H40C17.944,0,0,17.944,0,40v304
		v16C0,382.056,17.944,400,40,400z M350.632,464H129.368c3.304-9.312,12.2-16,22.632-16h72h32h72
		C338.432,448,347.328,454.688,350.632,464z M248,432h-16v-32h16V432z M464,360c0,13.232-10.768,24-24,24H256h-32H40
		c-13.232,0-24-10.768-24-24v-8h448V360z M40,16h400c13.232,0,24,10.768,24,24v296H16V40C16,26.768,26.768,16,40,16z"/>
	<path style="fill:#242A40;" d="M105.792,151.744l30.992,8c0.656,0.168,1.328,0.256,2,0.256c1.448,0,2.872-0.392,4.136-1.152
		c1.84-1.12,3.16-2.92,3.656-5.016C156.832,110.368,195.256,80,240,80c12.8,0,25.216,2.48,36.92,7.352
		c3.712,1.568,8,0.104,10.016-3.4l16.04-27.92c1.128-1.952,1.368-4.296,0.68-6.44c-0.696-2.152-2.256-3.904-4.312-4.832
		C280.656,36.296,260.688,32,240,32c-66.792,0-124.352,45.28-139.984,110.128C98.984,146.376,101.56,150.656,105.792,151.744z
		 M240,48c15.408,0,30.36,2.672,44.56,7.96l-8.104,14.112C264.768,66.04,252.528,64,240,64c-49.456,0-92.28,31.808-106.84,78.288
		l-15.512-4.008C134.04,84.744,183.28,48,240,48z"/>
	<path style="fill:#242A40;" d="M328.64,139.08c4.88,11.696,7.36,24.112,7.36,36.92c0,24.896-9.496,48.496-26.728,66.464
		c-2.88,3.008-2.976,7.728-0.208,10.84l21.28,24c1.464,1.656,3.544,2.624,5.752,2.696c0.08,0,0.16,0,0.232,0
		c2.128,0,4.168-0.84,5.664-2.352C369.08,250.48,384,214.376,384,176c0-20.672-4.288-40.624-12.744-59.312
		c-0.928-2.056-2.68-3.616-4.832-4.312c-2.152-0.712-4.488-0.456-6.44,0.664l-27.944,16.008
		C328.544,131.056,327.088,135.352,328.64,139.08z M360.048,131.456C365.328,145.656,368,160.6,368,176
		c0,31.248-11.136,60.808-31.512,84.12l-10.72-12.088C342.736,227.872,352,202.56,352,176c0-12.536-2.04-24.776-6.072-36.464
		L360.048,131.456z"/>
	<path style="fill:#242A40;" d="M264,243.824c2.384-0.84,4.712-1.808,6.984-2.888l2.96,2.952c3,3,8.312,3,11.312,0l22.624-22.632
		c1.504-1.504,2.344-3.536,2.344-5.656c0-2.128-0.84-4.16-2.344-5.656l-2.952-2.952c1.088-2.272,2.048-4.6,2.888-6.984H312
		c4.424,0,8-3.576,8-8v-32c0-4.424-3.576-8-8-8h-4.176c-0.84-2.384-1.808-4.712-2.888-6.984l2.952-2.96
		c3.128-3.128,3.128-8.184,0-11.312l-22.624-22.624c-3.128-3.128-8.184-3.128-11.312,0l-2.96,2.952
		c-2.272-1.088-4.6-2.048-6.984-2.888V104c0-4.424-3.576-8-8-8h-32c-4.424,0-8,3.576-8,8v4.176c-2.384,0.84-4.712,1.808-6.984,2.888
		l-2.96-2.952c-3.128-3.128-8.184-3.128-11.312,0l-22.624,22.624c-3.128,3.128-3.128,8.184,0,11.312l2.952,2.96
		c-1.088,2.272-2.048,4.6-2.888,6.984H168c-4.424,0-8,3.576-8,8v32c0,4.424,3.576,8,8,8h4.176c0.84,2.384,1.808,4.712,2.888,6.984
		l-2.952,2.952c-1.504,1.504-2.344,3.528-2.344,5.656c0,2.12,0.84,4.16,2.344,5.656l22.624,22.632
		c1.504,1.504,3.528,2.344,5.656,2.344s4.16-0.84,5.656-2.344l2.96-2.952c2.272,1.088,4.6,2.048,6.984,2.888V248
		c0,4.424,3.576,8,8,8h32c4.424,0,8-3.576,8-8v-4.176H264z M254,230.168c-3.528,0.912-6,4.088-6,7.736V240h-16v-2.096
		c0-3.648-2.472-6.832-6-7.744c-5.072-1.312-9.912-3.32-14.392-5.968c-3.136-1.832-7.144-1.344-9.728,1.232l-1.488,1.488
		L189.08,215.6l1.488-1.488c2.576-2.576,3.088-6.576,1.232-9.728c-2.648-4.48-4.656-9.32-5.968-14.392
		c-0.912-3.52-4.088-5.992-7.736-5.992H176v-16h2.096c3.648,0,6.832-2.472,7.744-6c1.312-5.072,3.32-9.912,5.968-14.392
		c1.848-3.144,1.344-7.152-1.232-9.728l-1.488-1.488L200.4,125.08l1.488,1.488c2.584,2.584,6.592,3.088,9.728,1.232
		c4.48-2.648,9.32-4.656,14.392-5.968c3.528-0.912,6-4.096,6-7.744V112h16v2.096c0,3.648,2.472,6.832,6,7.744
		c5.072,1.312,9.912,3.32,14.392,5.968c3.144,1.848,7.16,1.352,9.728-1.232l1.488-1.488l11.312,11.312l-1.488,1.488
		c-2.576,2.576-3.088,6.584-1.232,9.728c2.648,4.48,4.656,9.32,5.968,14.392c0.912,3.528,4.096,6,7.744,6H304v16h-2.096
		c-3.648,0-6.832,2.472-7.744,6c-1.312,5.072-3.32,9.912-5.968,14.392c-1.848,3.152-1.344,7.152,1.232,9.728l1.488,1.488
		L279.6,226.928l-1.488-1.488c-2.568-2.576-6.584-3.072-9.728-1.232C263.912,226.84,259.072,228.848,254,230.168z"/>
	<path style="fill:#242A40;" d="M240,136c-22.056,0-40,17.944-40,40s17.944,40,40,40s40-17.944,40-40S262.056,136,240,136z M240,200
		c-13.232,0-24-10.768-24-24s10.768-24,24-24s24,10.768,24,24S253.232,200,240,200z"/>
	<path style="fill:#242A40;" d="M328,112c13.232,0,24-10.768,24-24s-10.768-24-24-24s-24,10.768-24,24S314.768,112,328,112z M328,80
		c4.416,0,8,3.584,8,8s-3.584,8-8,8s-8-3.584-8-8S323.584,80,328,80z"/>
	<path style="fill:#242A40;" d="M288,256c-13.232,0-24,10.768-24,24s10.768,24,24,24s24-10.768,24-24S301.232,256,288,256z M288,288
		c-4.416,0-8-3.584-8-8s3.584-8,8-8s8,3.584,8,8S292.416,288,288,288z"/>
	<path style="fill:#242A40;" d="M112,216c13.232,0,24-10.768,24-24s-10.768-24-24-24s-24,10.768-24,24S98.768,216,112,216z M112,184
		c4.416,0,8,3.584,8,8s-3.584,8-8,8s-8-3.584-8-8S107.584,184,112,184z"/>
	<path style="fill:#242A40;" d="M240,272c-35.904,0-68.536-19.792-85.168-51.656c-1.008-1.928-2.76-3.368-4.848-3.976
		c-2.096-0.6-4.352-0.344-6.224,0.744l-27.768,15.96c-3.752,2.16-5.112,6.896-3.072,10.712C138.04,290.8,186.736,320,240,320
		c4.424,0,8-3.576,8-8v-32C248,275.576,244.424,272,240,272z M232,303.752c-41.616-2.584-79.272-25.216-101.112-60.792l13.872-7.976
		c18.968,30.64,51.296,50.192,87.232,52.736v16.032H232z"/>
</g>
<g>
</g>
<g>
</g>
<g>
</g>
<g>
</g>
<g>
</g>
<g>
</g>
<g>
</g>
<g>
</g>
<g>
</g>
<g>
</g>
<g>
</g>
<g>
</g>
<g>
</g>
<g>
</g>
<g>
</g>
</svg>
