<svg id="Layer_1" enable-background="new 0 0 256 256" height="512" viewBox="0 0 256 256" width="512" xmlns="http://www.w3.org/2000/svg"><path d="m226.333 198.269h-196.666c-4.418 0-8-3.582-8-8v-161.492h212.667v161.492c-.001 4.419-3.582 8-8.001 8z" fill="#e0ebfc"/><path d="m237.611 28.777h-219.222c-5.738 0-10.389-4.651-10.389-10.388 0-5.738 4.651-10.389 10.389-10.389h219.223c5.737 0 10.388 4.651 10.388 10.389 0 5.737-4.651 10.388-10.389 10.388z" fill="#4671c6"/><g fill="#3762cc"><path d="m226.333 200.27h-196.666c-5.514 0-10-4.486-10-10v-161.493c0-1.104.896-2 2-2h212.667c1.104 0 2 .896 2 2v161.493c-.001 5.514-4.486 10-10.001 10zm-202.666-169.493v159.493c0 3.309 2.691 6 6 6h196.667c3.309 0 6-2.691 6-6v-159.493z"/><path d="m237.611 30.777h-219.222c-6.831 0-12.389-5.557-12.389-12.388s5.558-12.389 12.389-12.389h219.223c6.83 0 12.388 5.558 12.388 12.389s-5.558 12.388-12.389 12.388zm-219.222-20.777c-4.626 0-8.389 3.763-8.389 8.389s3.763 8.389 8.389 8.389h219.223c4.625 0 8.389-3.763 8.389-8.389s-3.764-8.389-8.39-8.389z"/><path d="m128.007 225.632c-1.104 0-2-.896-2-2v-25.362c0-1.104.896-2 2-2s2 .896 2 2v25.363c0 1.104-.896 1.999-2 1.999z"/></g><path d="m68.244 184.4h-25.317c-1.907 0-3.452-1.546-3.452-3.452v-104.72c0-1.907 1.546-3.452 3.452-3.452h25.317c1.907 0 3.452 1.546 3.452 3.452v104.72c0 1.906-1.545 3.452-3.452 3.452z" fill="#f9a7a7"/><path d="m114.275 184.4h-25.317c-1.907 0-3.452-1.546-3.452-3.452v-71.923c0-1.907 1.546-3.452 3.452-3.452h25.317c1.907 0 3.452 1.546 3.452 3.452v71.923c0 1.906-1.546 3.452-3.452 3.452z" fill="#6bdddd"/><path d="m158.443 184.4h-21.593c-2.935 0-5.314-2.379-5.314-5.314v-82.772c0-2.935 2.379-5.314 5.314-5.314h21.593c2.935 0 5.314 2.379 5.314 5.314v82.771c.001 2.935-2.379 5.315-5.314 5.315z" fill="#4671c6"/><path d="m209.788 49.087h-124.283c-2.485 0-4.5-2.015-4.5-4.5s2.015-4.5 4.5-4.5h124.283c2.485 0 4.5 2.015 4.5 4.5s-2.015 4.5-4.5 4.5z" fill="#b9befc"/><path d="m209.788 69.087h-124.283c-2.485 0-4.5-2.015-4.5-4.5s2.015-4.5 4.5-4.5h124.283c2.485 0 4.5 2.015 4.5 4.5s-2.015 4.5-4.5 4.5z" fill="#b9befc"/><path d="m101.616 108.025c-.512 0-1.018-.157-1.445-.46l-46.031-32.61c-1.127-.798-1.393-2.358-.595-3.485.799-1.126 2.36-1.392 3.485-.595l45.018 31.892 44.847-14.151c1.315-.415 2.721.315 3.136 1.632.416 1.317-.314 2.721-1.632 3.137l-46.03 14.525c-.247.077-.501.115-.753.115z" fill="#3762cc"/><circle cx="101.616" cy="105.525" fill="#ffea92" r="5.92"/><circle cx="147.647" cy="91" fill="#ffea92" r="5.92"/><circle cx="55.585" cy="72.915" fill="#ffea92" r="5.92"/><path d="m183.376 182.724c-6.948 6.948-16.218 10.761-26.102 10.737-9.876-.024-19.155-3.877-26.127-10.849-14.431-14.43-14.481-37.861-.113-52.229 6.947-6.948 16.217-10.761 26.101-10.737 9.876.024 19.156 3.878 26.128 10.85 6.974 6.974 10.827 16.256 10.849 26.135.022 9.88-3.79 19.147-10.736 26.093z" fill="#f9cfcf"/><path d="m244.643 243.992c-3.78 3.78-9.908 3.78-13.688 0l-32.211-32.211c-1.21-1.21-1.21-3.171 0-4.38l9.308-9.308c1.21-1.21 3.171-1.21 4.38 0l32.211 32.211c3.78 3.78 3.78 9.908 0 13.688z" fill="#4671c6"/><path d="m207.948 198.197-10.347-10.347c-1.302 1.682-2.709 3.307-4.251 4.849s-3.167 2.949-4.849 4.251l10.347 10.347z" fill="#f9cfcf"/><path d="m193.19 120.568c-19.931-19.931-52.289-20.004-72.131-.161-19.842 19.842-19.77 52.2.161 72.131s52.289 20.003 72.131.161 19.77-52.2-.161-72.131zm-9.814 62.156c-6.948 6.948-16.218 10.761-26.102 10.737-9.876-.024-19.155-3.877-26.127-10.849-14.431-14.43-14.481-37.861-.113-52.229 6.947-6.948 16.217-10.761 26.101-10.737 9.876.024 19.156 3.878 26.128 10.85 6.974 6.974 10.827 16.256 10.849 26.135.022 9.88-3.79 19.147-10.736 26.093z" fill="#6bdddd"/><path d="m237.799 248.821c-2.991 0-5.981-1.138-8.258-3.415l-32.211-32.211c-.963-.962-1.493-2.243-1.493-3.604s.53-2.642 1.493-3.604l9.308-9.308c.962-.963 2.243-1.493 3.604-1.493s2.642.53 3.604 1.493l32.211 32.211c4.554 4.553 4.554 11.963 0 16.516-2.276 2.277-5.267 3.415-8.258 3.415zm-27.557-49.635c-.281 0-.562.107-.776.321l-9.308 9.308c-.428.428-.428 1.124 0 1.552l32.211 32.211c2.994 2.993 7.865 2.994 10.859 0s2.994-7.866 0-10.86l-32.211-32.211c-.213-.214-.494-.321-.775-.321z" fill="#3762cc"/><path d="m198.849 209.296c-.512 0-1.024-.195-1.414-.586l-10.347-10.347c-.406-.406-.618-.967-.582-1.541.037-.573.318-1.103.772-1.455 1.688-1.306 3.255-2.68 4.659-4.083 1.402-1.401 2.775-2.969 4.083-4.659.352-.454.881-.735 1.455-.772.581-.034 1.135.176 1.541.582l10.347 10.347c.781.781.781 2.047 0 2.828l-9.1 9.1c-.39.391-.903.586-1.414.586zm-7.359-12.187 7.359 7.358 6.271-6.271-7.358-7.358c-.975 1.16-1.978 2.257-2.996 3.275-1.02 1.019-2.117 2.022-3.276 2.996z" fill="#3762cc"/><path d="m157.434 209.533c-13.613.001-27.243-5.195-37.628-15.581-20.711-20.711-20.783-54.337-.161-74.959 9.976-9.976 23.29-15.449 37.451-15.42 14.172.032 27.493 5.565 37.509 15.582 10.016 10.016 15.55 23.336 15.582 37.508.032 14.175-5.445 27.475-15.42 37.451-10.283 10.28-23.8 15.418-37.333 15.419zm-.461-101.961c-13.061 0-25.309 5.058-34.5 14.249-19.063 19.063-18.99 50.152.161 69.303 19.151 19.15 50.241 19.224 69.303.161 9.217-9.218 14.278-21.51 14.249-34.614-.029-13.106-5.147-25.426-14.41-34.689-9.263-9.263-21.583-14.381-34.689-14.41-.038 0-.076 0-.114 0zm.394 87.888c-.033 0-.064 0-.098 0-10.408-.025-20.188-4.086-27.536-11.435-15.211-15.21-15.262-39.909-.113-55.057 7.303-7.304 17.039-11.323 27.421-11.323h.099c10.408.025 20.188 4.086 27.537 11.436 7.351 7.35 11.412 17.132 11.435 27.544.023 10.417-3.998 20.188-11.322 27.512-7.304 7.304-17.04 11.323-27.423 11.323zm-.326-73.814c-9.314 0-18.045 3.603-24.593 10.151-13.588 13.589-13.538 35.75.113 49.401 6.596 6.596 15.374 10.241 24.718 10.263h.087c9.315 0 18.047-3.603 24.596-10.151 6.566-6.567 10.171-15.33 10.15-24.675-.021-9.347-3.666-18.128-10.263-24.725-6.597-6.596-15.375-10.241-24.719-10.264-.029 0-.059 0-.089 0zm26.335 61.078h.01z" fill="#3762cc"/><path d="m180.644 148.964v.001c-1.583-1.729-3.411-3.306-5.48-4.68-5.201-3.451-11.155-5.122-17.059-5.157v.014c-6.273-.187-12.66 1.47-18.195 5.143-2.069 1.373-3.897 2.951-5.48 4.68v-.001s-3.495 3.627-6.087 7.903l7.142 7.18c.432.448.877.879 1.333 1.296.004.004.008.008.011.012v-.002c5.801 5.297 13.504 8.046 21.277 7.953v-.008c7.384-.175 14.623-2.907 20.141-7.945v.002c.004-.004.008-.008.011-.012.456-.417.901-.848 1.333-1.296l7.142-7.18c-2.594-4.277-6.089-7.903-6.089-7.903z" fill="#e0ebfc"/><circle cx="157.928" cy="156.218" fill="#4671c6" r="16.376"/><path d="m162.354 157.571c-2.978-1.011-4.573-4.245-3.562-7.224 1.011-2.978 4.245-4.573 7.224-3.562 2.978 1.011 4.573 4.245 3.562 7.224-1.012 2.978-4.246 4.573-7.224 3.562z" fill="#a4c9ff"/><path d="m157.712 175.308c-8.329 0-16.188-2.984-22.18-8.43-.038-.032-.075-.066-.11-.101-.472-.433-.933-.88-1.379-1.345l-7.119-7.155c-.648-.652-.769-1.662-.292-2.448 2.678-4.416 6.208-8.099 6.358-8.253 1.692-1.848 3.661-3.528 5.814-4.957 5.646-3.747 12.259-5.649 19.123-5.482.063-.006.116-.012.19-.008 6.521.038 12.798 1.937 18.153 5.49 2.143 1.422 4.099 3.089 5.814 4.958.149.154 3.68 3.837 6.358 8.253.477.786.356 1.796-.292 2.448l-7.142 7.18c-.427.444-.89.892-1.363 1.327-.034.033-.068.064-.104.094-5.722 5.2-13.243 8.184-21.207 8.415-.067.008-.136.012-.206.013-.138 0-.278.001-.416.001zm-19.521-11.418c5.226 4.764 12.391 7.465 19.718 7.417.049-.004.098-.007.148-.009 7.09-.168 13.781-2.804 18.84-7.423.002-.002.004-.004.006-.005.001-.001.002-.002.003-.003.425-.389.84-.79 1.243-1.208l6.035-6.067c-2.302-3.443-4.951-6.21-4.981-6.241-.011-.012-.022-.024-.034-.036-1.506-1.644-3.226-3.112-5.112-4.363-4.644-3.082-10.082-4.747-15.743-4.821-.09.01-.182.012-.27.011-6.128-.18-12.012 1.48-17.03 4.811-1.886 1.251-3.605 2.719-5.111 4.364-.016.017-.032.034-.048.05-.102.106-2.701 2.835-4.968 6.226l6.013 6.044c.425.441.839.842 1.264 1.23.01.007.019.015.027.023z" fill="#3762cc"/><path d="m128.006 221.166c-7.64 0-13.833 6.193-13.833 13.833s6.193 13.833 13.833 13.833 13.833-6.193 13.833-13.833-6.193-13.833-13.833-13.833zm0 21.666c-4.319 0-7.833-3.514-7.833-7.833s3.514-7.833 7.833-7.833 7.834 3.514 7.834 7.833-3.514 7.833-7.834 7.833z" fill="#f9a7a7"/><path d="m128.006 250.833c-8.73 0-15.833-7.103-15.833-15.833s7.103-15.833 15.833-15.833 15.833 7.103 15.833 15.833-7.102 15.833-15.833 15.833zm0-27.667c-6.525 0-11.833 5.308-11.833 11.833s5.308 11.833 11.833 11.833 11.833-5.309 11.833-11.833-5.308-11.833-11.833-11.833zm0 21.667c-5.422 0-9.833-4.411-9.833-9.833s4.411-9.833 9.833-9.833 9.834 4.411 9.834 9.833c0 5.421-4.411 9.833-9.834 9.833zm0-15.667c-3.216 0-5.833 2.617-5.833 5.833s2.617 5.833 5.833 5.833c3.217 0 5.834-2.617 5.834-5.833s-2.617-5.833-5.834-5.833z" fill="#3762cc"/></svg>