<?xml version="1.0" encoding="utf-8"?>
<!-- Generator: Adobe Illustrator 22.1.0, SVG Export Plug-In . SVG Version: 6.00 Build 0)  -->
<svg xmlns="http://www.w3.org/2000/svg" xmlns:xlink="http://www.w3.org/1999/xlink" version="1.1" id="Layer_1" x="0px" y="0px" viewBox="0 0 512 512" style="enable-background:new 0 0 512 512;" xml:space="preserve" width="512" height="512">
<style type="text/css">
	.st0{fill:#FF624B;}
	.st1{fill:#FFC34C;}
	.st2{fill:#F9BB32;}
	.st3{fill:#DB9C2E;}
	.st4{fill:#FF4B34;}
	.st5{fill:#FF9079;}
	.st6{fill:#FCE575;}
	.st7{fill:#FFD551;}
	.st8{fill:#FFF4C1;}
	.st9{fill:#FFB74B;}
	.st10{fill:#EACF32;}
	.st11{fill:#99AF17;}
	.st12{fill:#CCC033;}
	.st13{fill:#FCDA4F;}
	.st14{fill:#FFA730;}
	.st15{fill:#FFEACF;}
	.st16{fill:#FFD59A;}
	.st17{fill:#FFDF74;}
	.st18{fill:#E58D23;}
	.st19{fill:#BF6C0D;}
	.st20{fill:#A56021;}
	.st21{fill:#8C4C17;}
	.st22{fill:#FFEA63;}
	.st23{fill:#FCF9DE;}
</style>
<g>
	<g>
		<path class="st2" d="M167.358,293.96l65.726,140.269c1.614,3.445,6.57,3.28,7.951-0.265L281.73,329.51L483.464,75.279    L167.358,293.96z"/>
	</g>
	<g>
		<path class="st17" d="M167.358,293.96l-127.72-18.758c-13.172-1.935-15.245-20.077-2.849-24.933L483.464,75.279L167.358,293.96z"/>
	</g>
	<g>
		<path class="st14" d="M242.869,435.148L483.464,75.279L281.73,329.51l-40.769,104.644    C240.492,435.359,242.15,436.223,242.869,435.148z"/>
	</g>
	<g>
		<path class="st17" d="M281.73,329.51l146.703,83.064c8.119,4.597,18.291-0.615,19.303-9.889l35.727-327.406L281.73,329.51z"/>
	</g>
	<g>
		<circle class="st7" cx="134.288" cy="259.563" r="16.229"/>
	</g>
	<g>
		<path class="st7" d="M68.163,261.088l338.274-132.522l77.026-53.286L36.788,250.269c-12.396,4.856-10.323,22.999,2.849,24.934    l21.327,3.132C58.379,272.148,60.509,264.086,68.163,261.088z"/>
	</g>
	<g>
		<path class="st8" d="M451.901,204.2c-0.217,0-0.437-0.012-0.658-0.036c-3.294-0.359-5.673-3.321-5.314-6.615l1.868-17.118    c0.359-3.294,3.321-5.674,6.615-5.314c3.294,0.359,5.673,3.321,5.314,6.615l-1.868,17.118    C457.523,201.923,454.923,204.2,451.901,204.2z"/>
	</g>
	<g>
		<path class="st8" d="M434.206,368.528c-0.217,0-0.437-0.012-0.658-0.036c-3.294-0.359-5.673-3.321-5.313-6.615l15.856-145.305    c0.359-3.294,3.316-5.674,6.615-5.314c3.294,0.359,5.673,3.321,5.313,6.615l-15.855,145.305    C439.828,366.251,437.228,368.528,434.206,368.528z"/>
	</g>
</g>
</svg>
